<svg width="250" height="324" viewBox="0 0 250 324" fill="none" xmlns="http://www.w3.org/2000/svg">
<path d="M91.0564 323.61H85.0862V241.17L42.6184 190.98V117.332H48.5511V188.615L91.0564 238.804V323.61Z" fill="white"/>
<path d="M117.904 323.61H111.971V227.489L85.0859 177.3V80.1533H91.0562V175.683L117.904 225.873V323.61Z" fill="white"/>
<path d="M137.053 323.61H131.12V238.804L173.588 188.615V85.7124H179.558V190.98L137.053 241.17V323.61Z" fill="white"/>
<path d="M137.091 37.415H131.121V239.987H137.091V37.415Z" fill="white"/>
<path d="M16.6772 155.085L12.4822 159.49L43.467 192.024L47.662 187.62L16.6772 155.085Z" fill="white"/>
<path d="M233.282 171.772L208.908 197.364L213.103 201.769L237.477 176.176L233.282 171.772Z" fill="white"/>
<path d="M14.6065 172.608C22.6734 172.608 29.213 165.741 29.213 157.271C29.213 148.801 22.6734 141.934 14.6065 141.934C6.53955 141.934 0 148.801 0 157.271C0 165.741 6.53955 172.608 14.6065 172.608Z" fill="white"/>
<path d="M235.394 189.284C243.461 189.284 250 182.417 250 173.947C250 165.477 243.461 158.61 235.394 158.61C227.327 158.61 220.787 165.477 220.787 173.947C220.787 182.417 227.327 189.284 235.394 189.284Z" fill="white"/>
<path d="M176.554 101.051C184.621 101.051 191.161 94.184 191.161 85.7137C191.161 77.2435 184.621 70.377 176.554 70.377C168.487 70.377 161.948 77.2435 161.948 85.7137C161.948 94.184 168.487 101.051 176.554 101.051Z" fill="white"/>
<path d="M134.087 74.831C153.767 74.831 169.721 58.0795 169.721 37.4155C169.721 16.7515 153.767 0 134.087 0C114.407 0 98.4534 16.7515 98.4534 37.4155C98.4534 58.0795 114.407 74.831 134.087 74.831Z" fill="white"/>
<path d="M45.5848 143.235C59.2094 143.235 70.2544 131.638 70.2544 117.332C70.2544 103.026 59.2094 91.4287 45.5848 91.4287C31.9602 91.4287 20.9153 103.026 20.9153 117.332C20.9153 131.638 31.9602 143.235 45.5848 143.235Z" fill="white"/>
<path d="M89.8168 198.51C103.441 198.51 114.486 186.913 114.486 172.607C114.486 158.302 103.441 146.705 89.8168 146.705C76.1922 146.705 65.1472 158.302 65.1472 172.607C65.1472 186.913 76.1922 198.51 89.8168 198.51Z" fill="white"/>
<path d="M176.554 212.665C190.179 212.665 201.224 201.068 201.224 186.762C201.224 172.456 190.179 160.859 176.554 160.859C162.929 160.859 151.885 172.456 151.885 186.762C151.885 201.068 162.929 212.665 176.554 212.665Z" fill="white"/>
<path d="M167.468 323.612H161.535V255.326L208.02 198.394V140.99L224.542 115.56L229.461 119.069L213.991 142.921V200.72L167.468 257.652V323.612Z" fill="white"/>
<path d="M223.19 136.848C233.455 136.848 241.777 128.11 241.777 117.332C241.777 106.553 233.455 97.8154 223.19 97.8154C212.925 97.8154 204.603 106.553 204.603 117.332C204.603 128.11 212.925 136.848 223.19 136.848Z" fill="white"/>
<path d="M88.0515 99.669C98.3167 99.669 106.638 90.9313 106.638 80.1529C106.638 69.3744 98.3167 60.6367 88.0515 60.6367C77.7864 60.6367 69.4648 69.3744 69.4648 80.1529C69.4648 90.9313 77.7864 99.669 88.0515 99.669Z" fill="white"/>
</svg>
