<svg width="250" height="261" viewBox="0 0 250 261" fill="none" xmlns="http://www.w3.org/2000/svg">
<path d="M221.039 20.8116L20.875 230.983L28.6786 239.177L228.843 29.0054L221.039 20.8116Z" fill="white"/>
<path d="M28.7409 20.8792L20.9375 29.0728L221.102 239.246L228.905 231.052L28.7409 20.8792Z" fill="white"/>
<path d="M225.009 52.481C238.811 52.481 250 40.7327 250 26.2405C250 11.7483 238.811 0 225.009 0C211.207 0 200.018 11.7483 200.018 26.2405C200.018 40.7327 211.207 52.481 225.009 52.481Z" fill="white"/>
<path d="M24.9907 52.481C38.7928 52.481 49.9814 40.7327 49.9814 26.2405C49.9814 11.7483 38.7928 0 24.9907 0C11.1887 0 0 11.7483 0 26.2405C0 40.7327 11.1887 52.481 24.9907 52.481Z" fill="white"/>
<path d="M225.009 260.649C238.811 260.649 250 248.901 250 234.408C250 219.916 238.811 208.168 225.009 208.168C211.207 208.168 200.018 219.916 200.018 234.408C200.018 248.901 211.207 260.649 225.009 260.649Z" fill="white"/>
<path d="M24.9907 260.649C38.7928 260.649 49.9814 248.901 49.9814 234.408C49.9814 219.916 38.7928 208.168 24.9907 208.168C11.1887 208.168 0 219.916 0 234.408C0 248.901 11.1887 260.649 24.9907 260.649Z" fill="white"/>
<path d="M124.529 175.414C146.508 175.414 164.326 156.705 164.326 133.627C164.326 110.549 146.508 91.8403 124.529 91.8403C102.549 91.8403 84.7314 110.549 84.7314 133.627C84.7314 156.705 102.549 175.414 124.529 175.414Z" fill="white"/>
</svg>
